<svg version="1.1" id="Layer_1" xmlns="http://www.w3.org/2000/svg" xmlns:xlink="http://www.w3.org/1999/xlink" x="0px" y="0px" width="435.34829700000006" viewBox="289.818878 234.428925 435.34829700000006 601.751129" enable-background="new 0 0 1024 1024" xml:space="preserve" height="601.751129">
































































































<path fill="#01ABC2" opacity="1.000000" stroke="none" d=" M320.685516,251.975494   C328.751404,246.098633 337.375885,242.223557 346.844849,239.423553   C349.218445,238.692001 351.405334,238.282791 354.305420,237.624176   C358.300629,236.723495 361.558411,235.761185 364.871124,235.502365   C368.720764,235.201538 372.630585,235.339447 376.493042,235.600876   C386.002197,236.244522 395.499237,237.067963 405.001129,237.819092   C405.738739,237.899704 406.476318,237.980331 407.812683,238.435989   C411.295502,239.428391 414.334473,239.655853 417.037170,240.729691   C429.648163,245.740387 442.166321,250.984787 454.717651,256.145630   C457.586395,258.023926 460.455139,259.902252 463.940796,262.033752   C469.023773,265.554321 473.489838,268.821686 477.955902,272.089020   C478.762817,272.686951 479.569733,273.284851 480.746948,274.234802   C481.396271,274.757599 481.675262,274.928345 481.954285,275.099121   C484.752350,277.672943 487.550385,280.246796 490.779816,283.253998   C492.460968,284.823822 493.710754,285.960266 494.960541,287.096710   C495.768494,288.025604 496.576447,288.954498 497.745667,290.248718   C498.312927,290.901947 498.590942,291.072388 498.941010,291.125366   C499.738342,292.062897 500.535675,293.000458 501.649536,294.404388   C503.963104,297.276031 505.960144,299.681244 507.957214,302.086487   C509.074799,303.646667 510.192383,305.206848 511.732178,307.230408   C514.095520,310.147430 516.036621,312.601044 517.986389,315.418915   C518.570679,316.924469 519.041382,318.134583 519.738159,319.196320   C526.421936,329.380859 533.540405,339.339661 536.126343,351.858459   C536.136230,352.289185 536.133423,352.461548 535.927612,352.964172   C533.238708,360.885529 530.752991,368.476685 527.903564,376.286377   C527.360229,377.631195 527.024109,378.757446 527.023621,379.883850   C526.992920,444.247711 526.985413,508.611542 527.028015,572.975403   C527.028687,573.962830 527.682373,574.949890 528.261719,575.998169   C528.492188,576.059143 528.957214,575.954041 529.140320,576.171997   C534.253113,576.674988 534.115173,580.896667 533.709167,583.637573   C532.575989,591.286987 535.906921,597.691162 538.730286,604.112000   C540.045410,607.102844 540.888367,609.345520 539.033813,612.074341   C539.026062,612.036316 539.103699,612.039612 538.857605,612.143799   C538.421936,612.541077 538.232300,612.834045 537.895813,613.427368   C524.168213,622.956604 510.305969,631.805481 497.122925,641.571228   C490.299530,646.625916 483.665161,652.583252 478.782379,659.440796   C473.090851,667.434021 479.674652,677.723145 489.474487,678.062561   C495.906708,678.285339 501.633148,676.469238 506.719330,672.712524   C510.454590,669.953613 513.732544,666.523926 517.635742,664.060974   C520.571228,662.208618 524.128845,660.508362 527.491638,660.335327   C535.210632,659.938171 539.097290,665.522949 542.436707,671.556763   C545.795715,677.625854 546.341553,683.888123 541.887146,689.239685   C536.927124,695.198547 531.579468,701.123779 525.403931,705.726501   C508.325745,718.455383 489.074982,723.048157 469.378693,713.530151   C445.995697,702.230530 435.213135,681.467041 433.210022,656.262390   C432.219513,643.798645 437.330322,632.576172 444.288971,622.434509   C454.479706,607.582275 468.846863,596.834595 482.002472,584.915405   C488.532166,578.999390 495.238770,573.261169 497.012817,564.223389   C497.319122,564.627380 497.549774,564.749939 497.793671,564.834106   C497.815948,564.841797 497.978760,564.604797 497.981873,564.479004   C498.002594,563.647949 498.000275,562.816345 498.000275,561.984863   C497.999390,495.460052 497.999603,428.935211 497.983398,362.410400   C497.983124,361.312775 497.782593,360.215240 497.675537,359.117615   C497.470306,359.284790 497.238342,359.429321 497.070282,359.627960   C496.974426,359.741241 496.982727,359.942719 496.692261,359.815704   C495.797394,356.965118 495.388947,354.316132 494.474426,351.855225   C486.913879,331.510254 474.130646,315.070099 456.666229,302.316925   C430.520203,283.224152 401.769836,272.399658 368.842712,275.785950   C344.355804,278.304230 328.013947,296.683289 328.006683,321.440460   C327.987915,385.270538 328.003296,449.100647 328.005066,512.930725   C328.005096,514.352844 328.005096,515.774963 328.005096,518.057617   C330.453369,515.095581 332.123810,512.661987 334.192535,510.634766   C358.343292,486.968353 386.866211,481.670502 418.703461,490.821899   C440.821655,497.179596 456.263977,512.753235 471.046143,529.161438   C479.487732,538.531555 483.305084,549.431885 482.061890,562.127319   C481.401245,568.873901 478.503448,573.874390 472.129150,576.323120   C466.540833,578.469971 461.603882,576.820801 457.740540,572.421021   C450.060974,563.675110 442.303711,554.982727 434.976379,545.945679   C424.680450,533.247375 411.126923,526.879639 395.268799,526.156372   C369.345703,524.974060 348.447174,538.534912 338.498871,562.595276   C332.049530,578.193359 332.000275,594.081360 342.077240,608.116882   C349.874573,618.977234 358.807770,629.215881 368.351746,638.595764   C416.706665,686.119141 465.490692,733.205444 513.984558,780.588074   C532.392517,798.574280 565.903992,804.559082 588.876282,785.089539   C602.563843,773.489014 610.756348,758.683838 610.807373,740.534485   C610.849060,725.728638 605.172974,712.346313 595.033997,701.757751   C580.777832,686.869568 565.522095,672.939880 550.733948,658.558960   C546.681458,654.618042 542.645935,650.645691 538.826599,646.482239   C533.032959,640.166443 530.749756,633.764160 541.045166,627.468262   C542.150146,626.792603 543.019348,625.731384 543.997925,624.848999   C548.944519,620.812073 553.891174,616.775208 559.309082,612.367188   C560.520264,611.936584 561.260132,611.876953 562.000061,611.817383   C563.765076,613.138794 565.530151,614.460205 567.736084,616.218567   C570.056030,618.796326 571.935120,620.937134 573.814148,623.077942   C576.323608,625.993286 578.833069,628.908569 581.775269,632.261108   C583.791931,634.161499 585.375793,635.624695 586.959656,637.087891   C590.012146,639.674133 593.064636,642.260437 596.559998,645.274353   C597.984924,646.502319 598.966980,647.302551 599.949036,648.102844   C602.924866,650.848999 605.900696,653.595154 609.296875,656.343384   C609.717285,656.345520 609.713684,656.411926 609.713684,656.411926   C612.504028,659.566772 615.294373,662.721619 618.523865,666.274658   C619.868042,667.496704 620.773071,668.320679 621.678101,669.144592   C623.876160,672.017639 626.074219,674.890625 628.718933,678.221252   C636.629211,688.509277 642.918884,698.957520 646.175842,711.001831   C646.461670,712.423645 646.747559,713.845398 647.135986,716.025391   C651.431091,732.996826 651.447144,749.346558 646.450073,765.202026   C638.714355,789.746643 624.338135,809.619019 602.000916,823.175964   C601.163452,823.697021 600.325928,824.218079 598.888489,824.967346   C594.707642,826.787170 591.253845,828.832275 587.520081,829.878357   C579.086670,832.240967 570.514954,834.110107 561.999512,836.180054   C559.626892,836.135193 557.254272,836.090332 554.109558,836.046204   C552.891968,836.089722 552.446472,836.132507 552.000977,836.175293   C551.250366,836.113037 550.499756,836.050781 548.951538,835.929749   C539.464294,834.232971 530.774658,832.595032 522.084961,830.957031   C521.302917,830.621033 520.520813,830.284973 519.386353,829.923706   C511.705505,825.933899 504.154358,822.322815 497.120544,817.890686   C491.690552,814.469238 486.587921,810.360291 481.902039,805.958435   C469.453979,794.264954 457.258881,782.299805 445.062347,770.341553   C435.897308,761.355469 426.959290,752.137695 417.787872,743.158203   C406.164124,731.777832 394.406250,720.534424 382.402924,709.098999   C378.286194,705.036072 374.472778,701.105957 370.318909,696.687378   C368.254974,694.573853 366.531036,692.949463 364.808228,691.323792   C361.162415,687.883484 357.517242,684.442627 353.871796,681.001953   C351.130432,678.392944 348.389099,675.783997 345.208130,672.731934   C337.511719,664.917603 330.254883,657.546326 322.998077,650.175049   C321.570526,648.855286 320.142975,647.535461 318.368164,645.759033   C317.093933,644.174866 316.166870,643.047363 315.239807,641.919861   C313.724152,639.991272 312.208496,638.062683 310.340393,635.662964   C306.031891,628.781311 302.075836,622.370850 298.119751,615.960388   C297.978638,615.376831 297.837524,614.793213 297.369934,613.699951   C294.659180,603.793152 292.274902,594.395935 289.954529,584.751709   C290.070343,584.342712 290.122284,584.180725 290.429504,583.691162   C290.789429,582.212341 290.985382,581.060974 290.985565,579.909668   C290.999695,493.521637 291.002747,407.133575 290.963715,320.745575   C290.962982,319.152588 290.446564,317.559845 290.086304,316.002686   C290.001892,316.038391 289.818878,316.048828 289.818878,316.048828   C291.194824,306.989929 292.260620,297.868011 294.083160,288.899872   C294.939209,284.687408 297.252319,280.771057 299.370667,276.200653   C301.760254,272.701782 303.684296,269.722778 305.608337,266.743774   C310.529846,261.871307 315.451385,256.998871 320.685516,251.975494  z"/>

<path fill="#018DF7" opacity="1.000000" stroke="none" d=" M536.113647,351.600159   C533.540405,339.339661 526.421936,329.380859 519.738159,319.196320   C519.041382,318.134583 518.570679,316.924469 518.045227,315.053772   C519.096130,311.905853 520.096863,309.487366 521.097534,307.068848   C521.097534,307.068848 521.017578,307.001648 521.369690,306.919067   C523.506042,304.398468 525.264343,301.940887 527.080750,299.526978   C529.712402,296.029602 532.386169,292.563812 535.041992,289.084534   C538.265381,286.321716 541.488831,283.558868 545.207397,280.363708   C548.481262,277.317474 551.260071,274.703552 554.038818,272.089630   C554.507812,271.751526 554.976807,271.413452 556.058960,270.957764   C557.689209,270.000366 558.706238,269.160583 559.723328,268.320801   C560.768250,267.749268 561.813110,267.177704 563.268982,266.203003   C564.481323,265.214355 565.282776,264.628784 566.084167,264.043243   C567.075806,263.484985 568.067444,262.926727 569.589600,262.143372   C571.790527,261.100372 573.460876,260.282471 575.131287,259.464600   C576.012207,258.877167 576.893127,258.289734 578.288269,257.369507   C581.691956,255.750046 584.558289,254.408096 587.475525,253.187729   C594.971008,250.052124 602.489014,246.970428 609.998047,243.867188   C612.102539,243.343033 614.207092,242.818909 617.048767,242.154449   C620.150513,241.381439 622.487976,240.611816 624.883972,240.138138   C641.555481,236.842270 658.211670,234.428925 675.397644,235.738968   C685.102905,236.478760 694.771606,236.357697 703.952942,240.106491   C705.047729,240.772858 706.142578,241.439224 707.743225,242.459351   C712.440796,247.228424 716.632568,251.643768 720.824341,256.059082   C721.294373,257.280914 721.764343,258.502777 722.580566,260.259644   C723.241516,261.881195 723.556274,262.967682 723.871033,264.054199   C723.943848,265.146820 724.016724,266.239471 724.269043,267.951050   C724.669739,269.713226 724.890869,270.856415 725.112061,271.999603   C725.063965,273.397675 725.015808,274.795715 724.639404,276.928955   C724.208069,278.981506 724.015198,280.298920 724.014954,281.616333   C724.000488,370.467712 723.997437,459.319092 724.034241,548.170471   C724.034912,549.765381 724.528931,551.359985 724.854736,553.356201   C724.259644,556.800049 723.602600,559.842529 722.945557,562.885010   C722.337219,563.712463 721.729004,564.539917 720.696655,565.803955   C713.543518,572.584229 706.492371,573.572449 698.777466,570.062561   C693.333130,567.585632 687.459351,566.071777 681.874084,563.881165   C671.161804,559.679749 660.057251,560.844177 648.999451,561.176392   C647.205566,561.383606 645.411743,561.590881 642.903625,561.884033   C639.426514,562.530823 636.663635,563.091736 633.900757,563.652710   C633.168091,563.741089 632.435364,563.829407 630.956787,563.976929   C621.354004,566.733521 612.174194,568.681091 603.723145,572.320862   C593.472351,576.736023 583.837036,582.579895 573.935364,587.805603   C570.551453,589.865967 567.167542,591.926392 563.389771,593.991333   C562.995850,593.995972 562.906677,593.907898 562.925842,593.535034   C560.982239,583.550171 553.962524,577.253296 547.797974,570.474792   C546.002258,568.500244 543.231628,567.412292 541.059814,565.617920   C583.459778,531.308289 631.421143,516.154358 685.996033,521.762024   C685.996033,520.598022 685.996094,519.630066 685.996094,518.662170   C685.995422,440.507629 685.999390,362.353119 685.984497,284.198578   C685.983337,278.275085 684.064758,276.169861 678.101379,275.565338   C659.783936,273.708466 641.992798,277.118500 624.627075,282.167328   C585.942078,293.414337 553.620544,313.168518 536.113647,351.600159  z"/>











































































<path fill="#006AF7" opacity="1.000000" stroke="none" d=" M725.093628,477.536194   C725.098450,502.678925 725.031372,527.357849 724.878540,552.495789   C724.528931,551.359985 724.034912,549.765381 724.034241,548.170471   C723.997437,459.319092 724.000488,370.467712 724.014954,281.616333   C724.015198,280.298920 724.208069,278.981506 724.570801,277.343384   C724.886292,277.185547 724.942078,277.348450 725.011536,278.179840   C725.072205,280.566132 725.119141,282.283966 725.166138,284.001770   C725.118774,286.704468 725.071350,289.407135 725.024414,292.926758   C725.072266,294.495575 725.119629,295.247498 725.167053,295.999420   C725.118835,297.068634 725.070618,298.137817 725.022949,300.015961   C725.070740,302.216766 725.118164,303.608673 725.165527,305.000549   C725.118164,325.690674 725.070801,346.380798 725.023071,367.996765   C725.070862,373.948608 725.119019,378.974609 725.167175,384.000610   C725.118591,396.358154 725.069946,408.715668 725.023499,421.867615   C725.072388,423.107758 725.119202,423.553528 725.165955,423.999298   C725.117859,441.690338 725.069763,459.381348 725.093628,477.536194  z"/>





















































































































































































































































































































































































































































































































































































































































































































































































































































































































































































































































<path fill="#018DF7" opacity="1.000000" stroke="none" d=" M562.990051,594.700623   C562.487915,595.250549 562.011353,595.594360 561.038574,595.991943   C560.542480,596.045593 560.090271,596.091125 560.052979,596.054138   C560.015686,596.017151 559.935425,595.949341 560.006592,595.615112   C561.020691,594.823181 561.963684,594.365479 562.906677,593.907837   C562.906677,593.907898 562.995850,593.995972 563.041016,594.040649   C563.086121,594.085388 563.015564,594.494568 562.990051,594.700623  z"/>




































































































































<path fill="#018DF7" opacity="1.000000" stroke="none" d=" M559.072388,597.076721   C558.704224,597.470215 558.336121,597.863647 557.596619,598.244751   C557.225281,598.232300 556.977051,597.974426 557.143860,597.732971   C557.855957,597.303284 558.401184,597.115051 558.976501,596.965454   C559.006531,597.004089 559.072388,597.076721 559.072388,597.076721  z"/>
<path fill="#018DF7" opacity="1.000000" stroke="none" d=" M555.992004,599.705933   C555.966980,599.913147 555.502747,600.018066 555.353455,599.834839   C555.455872,599.421326 555.707520,599.191040 555.993103,598.992676   C556.027039,599.024658 556.094910,599.088684 556.094910,599.088684   C556.094910,599.088684 556.017029,599.498779 555.992004,599.705933  z"/>
<path fill="#018DF7" opacity="1.000000" stroke="none" d=" M557.343628,598.366577   C557.171997,598.661926 556.882019,598.822937 556.343506,599.036255   C556.094910,599.088684 556.027039,599.024658 556.108765,598.778076   C556.397705,598.268188 556.659912,598.082520 556.977051,597.974426   C556.977051,597.974426 557.225281,598.232300 557.343628,598.366577  z"/>
<path fill="#018DF7" opacity="1.000000" stroke="none" d=" M559.948486,596.962646   C559.951172,596.940002 559.510620,597.008301 559.291504,597.042480   C559.072388,597.076721 559.006531,597.004089 559.092224,596.757324   C559.376770,596.251160 559.629272,596.064087 559.935425,595.949341   C559.935425,595.949341 560.015686,596.017151 560.010620,596.270386   C560.005554,596.523682 559.915344,596.955139 559.915344,596.955139   C559.915344,596.955139 559.945801,596.985229 559.948486,596.962646  z"/>
































































































































































































































































































































































































































































































<path fill="#FDD102" opacity="1.000000" stroke="none" d=" M535.927612,352.964172   C537.114197,357.774994 538.939941,362.913879 538.953491,368.057465   C539.126526,434.005524 539.040405,499.954315 538.951904,566.583130   C538.883850,567.263306 538.826782,567.742371 538.502502,567.856506   C535.104553,570.631775 532.030884,573.292908 528.957214,575.954041   C528.957214,575.954041 528.492188,576.059143 528.256226,575.533691   C528.018799,534.517761 527.987122,494.027313 528.026855,453.536926   C528.052246,427.713837 528.183533,401.890869 528.267273,376.067841   C530.752991,368.476685 533.238708,360.885529 535.927612,352.964172  z"/>
<path fill="#019CDF" opacity="1.000000" stroke="none" d=" M529.140320,576.171997   C532.030884,573.292908 535.104553,570.631775 538.659668,568.052368   C539.376648,567.682068 539.612122,567.230103 539.847534,566.778137   C539.847595,566.778137 539.908081,566.878662 540.118652,566.820679   C540.540039,566.473328 540.750732,566.183960 540.961487,565.894531   C540.961487,565.894531 540.955383,565.952942 540.931641,565.935425   C543.231628,567.412292 546.002258,568.500244 547.797974,570.474792   C553.962524,577.253296 560.982239,583.550171 562.925842,593.535034   C561.963684,594.365479 561.020691,594.823181 560.006592,595.615112   C559.629272,596.064087 559.376770,596.251160 559.062195,596.718689   C558.401184,597.115051 557.855957,597.303284 557.143860,597.732971   C556.659912,598.082520 556.397705,598.268188 556.074829,598.746094   C555.707520,599.191040 555.455872,599.421326 555.124268,599.898804   C549.941101,604.089722 544.837830,608.033508 539.388062,612.044861   C540.888367,609.345520 540.045410,607.102844 538.730286,604.112000   C535.906921,597.691162 532.575989,591.286987 533.709167,583.637573   C534.115173,580.896667 534.253113,576.674988 529.140320,576.171997  z"/>
<path fill="#0092AB" opacity="1.000000" stroke="none" d=" M289.822388,583.001282   C289.864746,549.220215 289.923798,515.439148 289.945679,481.658051   C289.981232,426.737854 289.992462,371.817688 290.092346,316.432251   C290.446564,317.559845 290.962982,319.152588 290.963715,320.745575   C291.002747,407.133575 290.999695,493.521637 290.985565,579.909668   C290.985382,581.060974 290.789429,582.212341 290.342834,583.436218   C289.941315,583.339600 289.881866,583.170410 289.822388,583.001282  z"/>
<path fill="#0092AB" opacity="1.000000" stroke="none" d=" M497.012817,564.223389   C496.912537,496.295807 496.884308,428.660187 496.900116,360.564514   C496.982727,359.942719 496.974426,359.741241 497.070282,359.627960   C497.238342,359.429321 497.470306,359.284790 497.675537,359.117615   C497.782593,360.215240 497.983124,361.312775 497.983398,362.410400   C497.999603,428.935211 497.999390,495.460052 498.000275,561.984863   C498.000275,562.816345 498.002594,563.647949 497.981873,564.479004   C497.978760,564.604797 497.815948,564.841797 497.793671,564.834106   C497.549774,564.749939 497.319122,564.627380 497.012817,564.223389  z"/>
<path fill="#009DF1" opacity="1.000000" stroke="none" d=" M527.903564,376.286377   C528.183533,401.890869 528.052246,427.713837 528.026855,453.536926   C527.987122,494.027313 528.018799,534.517761 528.025757,575.472656   C527.682373,574.949890 527.028687,573.962830 527.028015,572.975403   C526.985413,508.611542 526.992920,444.247711 527.023621,379.883850   C527.024109,378.757446 527.360229,377.631195 527.903564,376.286377  z"/>

<path fill="#019CDF" opacity="1.000000" stroke="none" d=" M538.857605,612.143799   C538.919250,612.339294 538.734741,612.638916 538.296448,613.032837   C538.232300,612.834045 538.421936,612.541077 538.857605,612.143799  z"/>












































<path fill="#018DF7" opacity="1.000000" stroke="none" d=" M539.652588,566.793091   C539.612122,567.230103 539.376648,567.682068 538.984009,567.938232   C538.826782,567.742371 538.883850,567.263306 538.975159,567.039673   C539.066467,566.816101 539.457581,566.807983 539.652588,566.793091  z"/>
<path fill="#018DF7" opacity="1.000000" stroke="none" d=" M540.695374,565.970581   C540.750732,566.183960 540.540039,566.473328 540.061157,566.832214   C540.005127,566.616699 540.217163,566.331665 540.695374,565.970581  z"/>
</svg>